<?xml version="1.0" encoding="UTF-8" standalone="no"?>
<svg
   version="1.2"
   viewBox="0 0 392.03036 120.24572"
   width="392.03036"
   height="120.24571"
   id="svg950"
   sodipodi:docname="cta_background.svg"
   inkscape:version="1.1.2 (0a00cf5339, 2022-02-04)"
   xmlns:inkscape="http://www.inkscape.org/namespaces/inkscape"
   xmlns:sodipodi="http://sodipodi.sourceforge.net/DTD/sodipodi-0.dtd"
   xmlns="http://www.w3.org/2000/svg"
   xmlns:svg="http://www.w3.org/2000/svg"
   xmlns:rdf="http://www.w3.org/1999/02/22-rdf-syntax-ns#"
   xmlns:cc="http://creativecommons.org/ns#"
   xmlns:dc="http://purl.org/dc/elements/1.1/">
  <sodipodi:namedview
     id="namedview952"
     pagecolor="#ffffff"
     bordercolor="#000000"
     borderopacity="0.25"
     inkscape:pageshadow="2"
     inkscape:pageopacity="0.0"
     inkscape:pagecheckerboard="0"
     showgrid="false"
     fit-margin-top="0"
     fit-margin-left="0"
     fit-margin-right="0"
     fit-margin-bottom="0"
     inkscape:zoom="2.0320285"
     inkscape:cx="246.55167"
     inkscape:cy="107.77408"
     inkscape:window-width="1920"
     inkscape:window-height="991"
     inkscape:window-x="0"
     inkscape:window-y="0"
     inkscape:window-maximized="1"
     inkscape:current-layer="Layer 1" />
  <title
     id="title840">sl_100622_53160_42</title>
  <defs
     id="defs857">
    <linearGradient
       id="g1"
       x2="1"
       gradientUnits="userSpaceOnUse"
       gradientTransform="matrix(-48.809,-21.077,49.565,-114.781,503.28,203.022)">
      <stop
         offset="0"
         stop-color="#f5f5f5"
         id="stop842" />
      <stop
         offset=".062"
         stop-color="#c4c4c4"
         id="stop844" />
      <stop
         offset=".134"
         stop-color="#a3a3a3"
         id="stop846" />
      <stop
         offset=".49"
         stop-color="#efefef"
         id="stop848" />
      <stop
         offset=".832"
         stop-color="#efefef"
         id="stop850" />
      <stop
         offset=".946"
         stop-color="#c4c4c4"
         id="stop852" />
      <stop
         offset="1"
         stop-color="#f5f5f5"
         id="stop854" />
    </linearGradient>
  </defs>
  <style
     id="style859">
		.s0 { fill: #030333 } 
		.s1 { fill: #ffffff } 
		.s2 { fill: #fcfdfe } 
		.s3 { fill: #f9fcfe } 
		.s4 { fill: #f6fafd } 
		.s5 { fill: #f3f8fd } 
		.s6 { fill: #f0f6fc } 
		.s7 { fill: #ecf5fc } 
		.s8 { fill: #e9f3fb } 
		.s9 { fill: #e6f1fa } 
		.s10 { fill: #e3f0fa } 
		.s11 { fill: #e0eef9 } 
		.s12 { fill: #ddecf9 } 
		.s13 { fill: #daeaf8 } 
		.s14 { fill: #d7e9f7 } 
		.s15 { fill: #d4e7f7 } 
		.s16 { fill: #d1e5f6 } 
		.s17 { fill: #cde4f6 } 
		.s18 { fill: #cae2f5 } 
		.s19 { fill: #c7e0f5 } 
		.s20 { fill: #c4dff4 } 
		.s21 { fill: #c1ddf3 } 
		.s22 { fill: #bedbf3 } 
		.s23 { fill: #bbd9f2 } 
		.s24 { fill: #b8d8f2 } 
		.s25 { fill: #b5d6f1 } 
		.s26 { fill: #b2d4f0 } 
		.s27 { fill: #aed3f0 } 
		.s28 { fill: #abd1ef } 
		.s29 { fill: #a8cfef } 
		.s30 { fill: #a5cdee } 
		.s31 { fill: #a2ccee } 
		.s32 { fill: #9fcaed } 
		.s33 { fill: url(#g1) } 
	</style>
  <g
     id="Layer 1"
     transform="translate(-104.79063,-55.468746)">
    <g
       id="g931"
       transform="matrix(0.73573531,0,0,0.73573531,94.36412,33.798055)" />
    <g
       id="g933" />
    <g
       id="g935" />
    <g
       id="g941"
       transform="matrix(0.73573531,0,0,0.73573531,94.36412,33.798055)">
      <path
         id="path937"
         class="s0"
         d="m 522,42.7 c 0.6,3.2 3.7,5.3 6.8,4.7 3.2,-0.5 5.3,-3.7 5.1,-6.8 -0.3,-3.6 -2.6,-8 -7.8,-11.1 -0.5,-0.2 -1,0.3 -0.7,0.7 0.6,1.2 1.4,3 1.8,5.6 -3.4,0.4 -5.8,3.6 -5.2,6.9 z"
         style="fill:#9c4531;fill-opacity:1" />
      <path
         id="path939"
         class="s0"
         d="m 535.1,42.7 c 0.6,3.2 3.6,5.3 6.8,4.7 3.2,-0.5 5.3,-3.7 5.1,-6.8 -0.3,-3.6 -2.6,-8 -7.9,-11.1 -0.4,-0.2 -0.9,0.3 -0.7,0.7 0.7,1.2 1.5,3 1.9,5.6 -3.4,0.4 -5.8,3.6 -5.2,6.9 z"
         style="fill:#9c4531;fill-opacity:1" />
    </g>
    <g
       id="g947"
       transform="matrix(0.73573531,0,0,0.73573531,102.36412,3.798055)">
      <path
         id="path943"
         class="s1"
         d="m 39.1,179.6 c -0.6,-3.2 -3.6,-5.3 -6.8,-4.7 -3.2,0.6 -5.3,3.8 -5,6.8 0.2,3.6 2.5,8.1 7.8,11.1 0.4,0.3 0.9,-0.2 0.7,-0.7 -0.6,-1.1 -1.4,-3 -1.9,-5.6 3.5,-0.3 5.8,-3.5 5.2,-6.9 z"
         style="fill:#9c4531;fill-opacity:1" />
      <path
         id="path945"
         class="s1"
         d="m 26,179.6 c -0.5,-3.2 -3.6,-5.3 -6.8,-4.7 -3.2,0.6 -5.3,3.8 -5,6.8 0.3,3.6 2.6,8.1 7.8,11.1 0.4,0.3 0.9,-0.2 0.7,-0.7 -0.6,-1.1 -1.4,-3 -1.9,-5.6 3.5,-0.3 5.8,-3.5 5.2,-6.9 z"
         style="fill:#9c4531;fill-opacity:1" />
    </g>
  </g>
  <metadata
     id="metadata1164">
    <rdf:RDF>
      <cc:Work
         rdf:about="">
        <dc:title>sl_100622_53160_42</dc:title>
      </cc:Work>
    </rdf:RDF>
  </metadata>
</svg>
