<svg id="visual" viewBox="0 0 900 600" width="900" height="600" xmlns="http://www.w3.org/2000/svg" xmlns:xlink="http://www.w3.org/1999/xlink" version="1.1"><rect x="0" y="0" width="900" height="600" fill="#e3e6e8"></rect><path d="M0 502L15 496.3C30 490.7 60 479.3 90 478.2C120 477 150 486 180 489.8C210 493.7 240 492.3 270 492.5C300 492.7 330 494.3 360 491C390 487.7 420 479.3 450 477.2C480 475 510 479 540 481.2C570 483.3 600 483.7 630 486.5C660 489.3 690 494.7 720 495.8C750 497 780 494 810 489.2C840 484.3 870 477.7 885 474.3L900 471L900 601L885 601C870 601 840 601 810 601C780 601 750 601 720 601C690 601 660 601 630 601C600 601 570 601 540 601C510 601 480 601 450 601C420 601 390 601 360 601C330 601 300 601 270 601C240 601 210 601 180 601C150 601 120 601 90 601C60 601 30 601 15 601L0 601Z" fill="#6587c2"></path><path d="M0 533L15 530.3C30 527.7 60 522.3 90 518.7C120 515 150 513 180 513.5C210 514 240 517 270 519.7C300 522.3 330 524.7 360 523.3C390 522 420 517 450 513.5C480 510 510 508 540 511.5C570 515 600 524 630 529C660 534 690 535 720 531.5C750 528 780 520 810 515.7C840 511.3 870 510.7 885 510.3L900 510L900 601L885 601C870 601 840 601 810 601C780 601 750 601 720 601C690 601 660 601 630 601C600 601 570 601 540 601C510 601 480 601 450 601C420 601 390 601 360 601C330 601 300 601 270 601C240 601 210 601 180 601C150 601 120 601 90 601C60 601 30 601 15 601L0 601Z" fill="#41578a"></path><path d="M0 555L15 556.3C30 557.7 60 560.3 90 562C120 563.7 150 564.3 180 564.2C210 564 240 563 270 562.5C300 562 330 562 360 561C390 560 420 558 450 558.7C480 559.3 510 562.7 540 563.8C570 565 600 564 630 563.7C660 563.3 690 563.7 720 562C750 560.3 780 556.7 810 556.7C840 556.7 870 560.3 885 562.2L900 564L900 601L885 601C870 601 840 601 810 601C780 601 750 601 720 601C690 601 660 601 630 601C600 601 570 601 540 601C510 601 480 601 450 601C420 601 390 601 360 601C330 601 300 601 270 601C240 601 210 601 180 601C150 601 120 601 90 601C60 601 30 601 15 601L0 601Z" fill="#1e2c56"></path></svg>