<?xml version="1.0" encoding="UTF-8" standalone="no"?>
<svg
   id="visual"
   viewBox="0 0 900 401.21222"
   width="900"
   height="401.21222"
   version="1.1"
   sodipodi:docname="layered-waves-haikei (1).svg"
   inkscape:version="1.1.2 (0a00cf5339, 2022-02-04)"
   xmlns:inkscape="http://www.inkscape.org/namespaces/inkscape"
   xmlns:sodipodi="http://sodipodi.sourceforge.net/DTD/sodipodi-0.dtd"
   xmlns="http://www.w3.org/2000/svg"
   xmlns:svg="http://www.w3.org/2000/svg">
  <defs
     id="defs851" />
  <sodipodi:namedview
     id="namedview849"
     pagecolor="#ffffff"
     bordercolor="#000000"
     borderopacity="0.25"
     inkscape:pageshadow="2"
     inkscape:pageopacity="0.0"
     inkscape:pagecheckerboard="0"
     showgrid="false"
     inkscape:zoom="0.89723994"
     inkscape:cx="409.03217"
     inkscape:cy="95.292236"
     inkscape:window-width="1920"
     inkscape:window-height="1084"
     inkscape:window-x="0"
     inkscape:window-y="0"
     inkscape:window-maximized="1"
     inkscape:current-layer="visual"
     fit-margin-top="0"
     fit-margin-left="0"
     fit-margin-right="0"
     fit-margin-bottom="0" />
  <rect
     x="0"
     y="0"
     width="900"
     height="400.21219"
     fill="#f9f9f9"
     id="rect840"
     style="stroke-width:0.816713" />
  <path
     d="m 0,302.21222 15,-5.7 c 15,-5.6 45,-17 75,-18.1 30,-1.2 60,7.8 90,11.6 30,3.9 60,2.5 90,2.7 30,0.2 60,1.8 90,-1.5 30,-3.3 60,-11.7 90,-13.8 30,-2.2 60,1.8 90,4 30,2.1 60,2.5 90,5.3 30,2.8 60,8.2 90,9.3 30,1.2 60,-1.8 90,-6.6 30,-4.9 60,-11.5 75,-14.9 l 15,-3.3 v 130 h -15 c -15,0 -45,0 -75,0 -30,0 -60,0 -90,0 -30,0 -60,0 -90,0 -30,0 -60,0 -90,0 -30,0 -60,0 -90,0 -30,0 -60,0 -90,0 -30,0 -60,0 -90,0 -30,0 -60,0 -90,0 -30,0 -60,0 -90,0 -30,0 -60,0 -75,0 H 0 Z"
     fill="#6587c2"
     id="path842" />
  <path
     d="m 0,333.21222 15,-2.7 c 15,-2.6 45,-8 75,-11.6 30,-3.7 60,-5.7 90,-5.2 30,0.5 60,3.5 90,6.2 30,2.6 60,5 90,3.6 30,-1.3 60,-6.3 90,-9.8 30,-3.5 60,-5.5 90,-2 30,3.5 60,12.5 90,17.5 30,5 60,6 90,2.5 30,-3.5 60,-11.5 90,-15.8 30,-4.4 60,-5 75,-5.4 l 15,-0.3 v 91 h -15 c -15,0 -45,0 -75,0 -30,0 -60,0 -90,0 -30,0 -60,0 -90,0 -30,0 -60,0 -90,0 -30,0 -60,0 -90,0 -30,0 -60,0 -90,0 -30,0 -60,0 -90,0 -30,0 -60,0 -90,0 -30,0 -60,0 -90,0 -30,0 -60,0 -75,0 H 0 Z"
     fill="#41578a"
     id="path844" />
  <path
     d="m 0,355.21222 15,1.3 c 15,1.4 45,4 75,5.7 30,1.7 60,2.3 90,2.2 30,-0.2 60,-1.2 90,-1.7 30,-0.5 60,-0.5 90,-1.5 30,-1 60,-3 90,-2.3 30,0.6 60,4 90,5.1 30,1.2 60,0.2 90,-0.1 30,-0.4 60,0 90,-1.7 30,-1.7 60,-5.3 90,-5.3 30,0 60,3.6 75,5.5 l 15,1.8 v 37 h -15 c -15,0 -45,0 -75,0 -30,0 -60,0 -90,0 -30,0 -60,0 -90,0 -30,0 -60,0 -90,0 -30,0 -60,0 -90,0 -30,0 -60,0 -90,0 -30,0 -60,0 -90,0 -30,0 -60,0 -90,0 -30,0 -60,0 -90,0 -30,0 -60,0 -75,0 H 0 Z"
     fill="#1e2c56"
     id="path846" />
</svg>
