<?xml version="1.0" encoding="UTF-8" standalone="no"?>
<!-- Created with Inkscape (http://www.inkscape.org/) -->

<svg
   width="43.296211mm"
   height="10.610624mm"
   viewBox="0 0 43.296211 10.610624"
   version="1.1"
   id="svg31239"
   inkscape:version="1.1.2 (0a00cf5339, 2022-02-04)"
   sodipodi:docname="ejaar_logo_v2.svg"
   xmlns:inkscape="http://www.inkscape.org/namespaces/inkscape"
   xmlns:sodipodi="http://sodipodi.sourceforge.net/DTD/sodipodi-0.dtd"
   xmlns="http://www.w3.org/2000/svg"
   xmlns:svg="http://www.w3.org/2000/svg">
  <sodipodi:namedview
     id="namedview31241"
     pagecolor="#ffffff"
     bordercolor="#000000"
     borderopacity="0.25"
     inkscape:pageshadow="2"
     inkscape:pageopacity="0.0"
     inkscape:pagecheckerboard="0"
     inkscape:document-units="mm"
     showgrid="false"
     fit-margin-top="0"
     fit-margin-left="0"
     fit-margin-right="0"
     fit-margin-bottom="0"
     inkscape:zoom="3.1108586"
     inkscape:cx="13.501096"
     inkscape:cy="18.162188"
     inkscape:window-width="1920"
     inkscape:window-height="1084"
     inkscape:window-x="0"
     inkscape:window-y="0"
     inkscape:window-maximized="1"
     inkscape:current-layer="text6623" />
  <defs
     id="defs31236" />
  <g
     inkscape:label="Layer 1"
     inkscape:groupmode="layer"
     id="layer1"
     transform="translate(-108.99107,-10.684379)">
    <path
       id="path1116"
       style="fill:none;fill-opacity:1;stroke:#53769b;stroke-width:0.397669;stroke-miterlimit:4;stroke-dasharray:none;stroke-opacity:1"
       inkscape:transform-center-x="0.40345636"
       inkscape:transform-center-y="-2.5413047"
       d="m 112.07935,10.78784 c 0.24142,0.396213 2.57902,4.939657 2.19426,4.963964 -0.45177,0.02854 -4.65633,0.01741 -5.28026,0.01027"
       sodipodi:nodetypes="csc"
       inkscape:export-filename="/media/mbensmail/0261EB8A001461A8/projects/ejaar/public/assets/logos/ejaar_logo_v2.svg"
       inkscape:export-xdpi="96"
       inkscape:export-ydpi="96" />
    <path
       id="path1116-3"
       style="fill:none;fill-opacity:1;stroke:#53769b;stroke-width:0.397669;stroke-miterlimit:4;stroke-dasharray:none;stroke-opacity:1"
       inkscape:transform-center-x="-0.40345651"
       inkscape:transform-center-y="-2.5413047"
       d="m 117.60084,10.850816 c -0.24142,0.396213 -2.58337,4.91635 -2.21596,4.915455 0.57621,-0.0013 4.73096,0.04706 5.36591,0.01672"
       sodipodi:nodetypes="csc"
       inkscape:export-filename="/media/mbensmail/0261EB8A001461A8/projects/ejaar/public/assets/logos/ejaar_logo_v2.svg"
       inkscape:export-xdpi="96"
       inkscape:export-ydpi="96" />
    <path
       id="path1116-3-6"
       style="fill:none;fill-opacity:1;stroke:#53769b;stroke-width:0.397669;stroke-miterlimit:4;stroke-dasharray:none;stroke-opacity:1"
       inkscape:transform-center-x="0.16807244"
       inkscape:transform-center-y="-3.0465148"
       d="m 117.83611,21.057017 c -0.21735,-0.409913 -2.75093,-4.427394 -3.09442,-4.415507 -0.4524,0.01566 -2.59291,4.022294 -2.84953,4.569008"
       sodipodi:nodetypes="csc"
       inkscape:export-filename="/media/mbensmail/0261EB8A001461A8/projects/ejaar/public/assets/logos/ejaar_logo_v2.svg"
       inkscape:export-xdpi="96"
       inkscape:export-ydpi="96" />
    <g
       aria-label="Ejaar"
       id="text6623"
       style="font-size:9.87777px;font-family:'Aref Ruqaa';-inkscape-font-specification:'Aref Ruqaa';letter-spacing:-0.537104px;fill:#344a60;stroke-width:0.241565">
      <path
         d="m 128.15878,19.115492 h -4.48551 v -7.200933 h 4.48551 v 1.254013 h -3.06269 v 1.553048 h 2.7733 v 1.254014 h -2.7733 v 1.885844 h 3.06269 z"
         style="font-weight:bold;font-family:monospace;-inkscape-font-specification:'monospace, Bold'"
         id="path25603" />
      <path
         d="m 132.3404,18.908097 q 0,1.215429 -0.43891,1.731504 -0.43408,0.520898 -1.44693,0.520898 h -1.52411 v -1.085204 h 1.12861 q 0.47267,0 0.67041,-0.265272 0.19775,-0.265273 0.19775,-0.901926 V 14.79879 h -1.43247 v -1.085204 h 2.84565 z m 0,-6.173606 h -1.41318 V 11.08498 h 1.41318 z"
         style="font-weight:bold;font-family:monospace;-inkscape-font-specification:'monospace, Bold'"
         id="path25605" />
      <path
         d="m 136.52964,16.578525 q -0.791,0 -1.1045,0.202572 -0.3135,0.202571 -0.3135,0.694531 0,0.366558 0.21704,0.583598 0.21704,0.217041 0.58842,0.217041 0.55948,0 0.86816,-0.419612 0.30868,-0.424436 0.30868,-1.181667 v -0.09646 z m 1.96783,-0.545013 v 3.08198 h -1.40353 v -0.602891 q -0.25562,0.356911 -0.65594,0.549836 -0.40032,0.192926 -0.88264,0.192926 -0.92121,0 -1.43729,-0.487136 -0.51125,-0.487137 -0.51125,-1.360123 0,-0.945334 0.61254,-1.393885 0.61253,-0.453374 1.89549,-0.453374 h 0.97909 v -0.236333 q 0,-0.342443 -0.2508,-0.516075 -0.24598,-0.178456 -0.72829,-0.178456 -0.50643,0 -0.98392,0.130224 -0.47267,0.125402 -0.98874,0.405143 v -1.205782 q 0.46784,-0.192925 0.95015,-0.284565 0.48232,-0.09164 1.02251,-0.09164 1.31671,0 1.84726,0.535367 0.53536,0.535368 0.53536,1.914783 z"
         style="font-weight:bold;font-family:monospace;-inkscape-font-specification:'monospace, Bold'"
         id="path25607" />
      <path
         d="m 142.46862,16.578525 q -0.79099,0 -1.1045,0.202572 -0.3135,0.202571 -0.3135,0.694531 0,0.366558 0.21704,0.583598 0.21704,0.217041 0.58842,0.217041 0.55949,0 0.86817,-0.419612 0.30868,-0.424436 0.30868,-1.181667 v -0.09646 z m 1.96784,-0.545013 v 3.08198 h -1.40353 v -0.602891 q -0.25563,0.356911 -0.65595,0.549836 -0.40032,0.192926 -0.88263,0.192926 -0.92122,0 -1.43729,-0.487136 -0.51126,-0.487137 -0.51126,-1.360123 0,-0.945334 0.61254,-1.393885 0.61254,-0.453374 1.89549,-0.453374 h 0.9791 v -0.236333 q 0,-0.342443 -0.25081,-0.516075 -0.24598,-0.178456 -0.72829,-0.178456 -0.50643,0 -0.98392,0.130224 -0.47266,0.125402 -0.98874,0.405143 v -1.205782 q 0.46785,-0.192925 0.95016,-0.284565 0.48231,-0.09164 1.0225,-0.09164 1.31672,0 1.84726,0.535367 0.53537,0.535368 0.53537,1.914783 z"
         id="path25609" />
      <path
         d="m 150.05367,15.203933 q -0.23151,-0.212217 -0.54502,-0.318326 -0.30868,-0.106109 -0.68006,-0.106109 -0.44855,0 -0.78617,0.159163 -0.33279,0.15434 -0.51607,0.453374 -0.11576,0.183279 -0.16399,0.443728 -0.0434,0.260449 -0.0434,0.790994 v 2.488735 h -1.41317 v -5.401906 h 1.41317 v 0.839225 q 0.2074,-0.463021 0.63666,-0.713823 0.42925,-0.255626 1.00321,-0.255626 0.28938,0 0.5643,0.07235 0.27974,0.06752 0.53055,0.202571 z"
         id="path25611" />
    </g>
  </g>
</svg>
